<svg width="1000" height="232" viewBox="0 0 1000 232" fill="none" xmlns="http://www.w3.org/2000/svg">
<g clip-path="url(#clip0_65_14)">
<path d="M69.121 163V69.56H93.313C99.3717 69.56 104.577 70.712 108.929 73.016C113.366 75.32 116.78 78.5627 119.169 82.744C121.644 86.9253 122.881 91.8747 122.881 97.592V134.84C122.881 140.557 121.644 145.549 119.169 149.816C116.78 153.997 113.366 157.24 108.929 159.544C104.577 161.848 99.3717 163 93.313 163H69.121ZM80.641 152.76H93.313C98.945 152.76 103.34 151.181 106.497 148.024C109.74 144.867 111.361 140.472 111.361 134.84V97.592C111.361 92.0453 109.74 87.6933 106.497 84.536C103.34 81.3787 98.945 79.8 93.313 79.8H80.641V152.76ZM164.815 163L189.135 69.56H204.623L228.815 163H217.167L211.023 138.168H182.735L176.591 163H164.815ZM185.039 128.44H208.591L201.423 99.64C200.058 94.1787 198.991 89.6133 198.223 85.944C197.455 82.2747 196.986 79.8853 196.815 78.776C196.644 79.8853 196.175 82.2747 195.407 85.944C194.639 89.6133 193.572 94.136 192.207 99.512L185.039 128.44ZM298.397 164.28C292.253 164.28 286.962 163.256 282.525 161.208C278.173 159.16 274.802 156.216 272.413 152.376C270.024 148.536 268.786 143.971 268.701 138.68H280.221C280.221 143.373 281.8 147.085 284.957 149.816C288.2 152.547 292.68 153.912 298.397 153.912C303.773 153.912 307.954 152.589 310.941 149.944C314.013 147.299 315.549 143.629 315.549 138.936C315.549 135.181 314.525 131.896 312.477 129.08C310.514 126.264 307.656 124.301 303.901 123.192L291.229 119.224C284.829 117.261 279.88 113.976 276.381 109.368C272.968 104.76 271.261 99.3413 271.261 93.112C271.261 88.0773 272.37 83.7253 274.589 80.056C276.893 76.3013 280.093 73.4 284.189 71.352C288.285 69.2187 293.106 68.152 298.653 68.152C306.845 68.152 313.416 70.456 318.365 75.064C323.314 79.5867 325.832 85.6453 325.917 93.24H314.397C314.397 88.632 312.989 85.048 310.173 82.488C307.442 79.8427 303.56 78.52 298.525 78.52C293.576 78.52 289.693 79.7147 286.877 82.104C284.146 84.4933 282.781 87.8213 282.781 92.088C282.781 95.928 283.805 99.256 285.853 102.072C287.901 104.888 290.845 106.893 294.685 108.088L307.485 112.184C313.714 114.147 318.536 117.475 321.949 122.168C325.362 126.861 327.069 132.365 327.069 138.68C327.069 143.8 325.874 148.28 323.485 152.12C321.096 155.96 317.725 158.947 313.373 161.08C309.106 163.213 304.114 164.28 298.397 164.28ZM399.467 164.28C393.323 164.28 388.032 163.256 383.595 161.208C379.243 159.16 375.872 156.216 373.483 152.376C371.094 148.536 369.856 143.971 369.771 138.68H381.291C381.291 143.373 382.87 147.085 386.027 149.816C389.27 152.547 393.75 153.912 399.467 153.912C404.843 153.912 409.024 152.589 412.011 149.944C415.083 147.299 416.619 143.629 416.619 138.936C416.619 135.181 415.595 131.896 413.547 129.08C411.584 126.264 408.726 124.301 404.971 123.192L392.299 119.224C385.899 117.261 380.95 113.976 377.451 109.368C374.038 104.76 372.331 99.3413 372.331 93.112C372.331 88.0773 373.44 83.7253 375.659 80.056C377.963 76.3013 381.163 73.4 385.259 71.352C389.355 69.2187 394.176 68.152 399.723 68.152C407.915 68.152 414.486 70.456 419.435 75.064C424.384 79.5867 426.902 85.6453 426.987 93.24H415.467C415.467 88.632 414.059 85.048 411.243 82.488C408.512 79.8427 404.63 78.52 399.595 78.52C394.646 78.52 390.763 79.7147 387.947 82.104C385.216 84.4933 383.851 87.8213 383.851 92.088C383.851 95.928 384.875 99.256 386.923 102.072C388.971 104.888 391.915 106.893 395.755 108.088L408.555 112.184C414.784 114.147 419.606 117.475 423.019 122.168C426.432 126.861 428.139 132.365 428.139 138.68C428.139 143.8 426.944 148.28 424.555 152.12C422.166 155.96 418.795 158.947 414.443 161.08C410.176 163.213 405.184 164.28 399.467 164.28ZM473.529 163V69.56H485.049V109.496H515.001V69.56H526.521V163H515.001V119.992H485.049V163H473.529ZM601.095 164.28C595.463 164.28 590.599 163.213 586.503 161.08C582.492 158.947 579.378 155.875 577.159 151.864C575.026 147.768 573.959 142.947 573.959 137.4V95.16C573.959 89.528 575.026 84.7067 577.159 80.696C579.378 76.6853 582.492 73.6133 586.503 71.48C590.599 69.3467 595.463 68.28 601.095 68.28C606.727 68.28 611.548 69.3467 615.559 71.48C619.655 73.6133 622.77 76.6853 624.903 80.696C627.122 84.7067 628.231 89.4853 628.231 95.032V137.4C628.231 142.947 627.122 147.768 624.903 151.864C622.77 155.875 619.655 158.947 615.559 161.08C611.548 163.213 606.727 164.28 601.095 164.28ZM601.095 153.912C606.13 153.912 609.97 152.504 612.615 149.688C615.346 146.787 616.711 142.691 616.711 137.4V95.16C616.711 89.8693 615.346 85.816 612.615 83C609.97 80.0987 606.13 78.648 601.095 78.648C596.146 78.648 592.306 80.0987 589.575 83C586.844 85.816 585.479 89.8693 585.479 95.16V137.4C585.479 142.691 586.844 146.787 589.575 149.688C592.306 152.504 596.146 153.912 601.095 153.912ZM675.541 163V69.56H704.469C710.016 69.56 714.88 70.712 719.061 73.016C723.242 75.2347 726.485 78.3493 728.789 82.36C731.093 86.3707 732.245 91.064 732.245 96.44C732.245 102.755 730.581 108.173 727.253 112.696C724.01 117.219 719.573 120.333 713.941 122.04L733.525 163H719.957L702.037 123.32H687.061V163H675.541ZM687.061 112.952H704.469C709.248 112.952 713.088 111.459 715.989 108.472C718.89 105.4 720.341 101.389 720.341 96.44C720.341 91.4053 718.89 87.3947 715.989 84.408C713.088 81.4213 709.248 79.928 704.469 79.928H687.061V112.952ZM797.475 163V79.928H771.875V69.432H834.595V79.928H808.995V163H797.475ZM898.545 163V128.056L870.385 69.56H882.289L900.849 107.96C901.873 110.093 902.684 111.928 903.281 113.464C903.878 114.915 904.262 115.981 904.433 116.664C904.604 115.981 904.988 114.915 905.585 113.464C906.268 111.928 907.121 110.093 908.145 107.96L926.321 69.56H938.225L910.065 128.056V163H898.545Z" fill="url(#paint0_linear_65_14)"/>
</g>
<defs>
<linearGradient id="paint0_linear_65_14" x1="1017" y1="116.5" x2="-17" y2="116.5" gradientUnits="userSpaceOnUse">
<stop stop-color="#B200FF"/>
<stop offset="0.505" stop-color="#CCCCCC"/>
<stop offset="1" stop-color="#00CAE3"/>
</linearGradient>
<clipPath id="clip0_65_14">
<rect width="1000" height="232" fill="white"/>
</clipPath>
</defs>
</svg>
